<?xml version="1.0" encoding="UTF-8"?>
<svg id="_图层_1" data-name="图层 1" xmlns="http://www.w3.org/2000/svg" viewBox="0 0 127 127">
  <rect width="127" height="127" rx="27.1667" ry="27.1667" style="fill: #fcee21;"/>
  <g>
    <path d="m41.1914,77.5352h21.7822v6.0205h-14.4771v6.6406h12.5737v5.623h-12.5737v6.6846h14.4771v6.0215h-21.7822v-30.9902Z"/>
    <path d="m76.6084,109.1006c-3.9844,0-7.5264-.8555-10.625-2.5674v-6.5078c1.623,1.0029,3.4092,1.8447,5.3564,2.5234,1.9482.6787,3.7188,1.0176,5.3135,1.0176,1.2979,0,2.3242-.3242,3.0762-.9736.7529-.6484,1.1289-1.3867,1.1289-2.2139,0-1.1504-.4424-2.2061-1.3281-3.165-.8848-.959-2.3018-1.7334-4.25-2.3242-2.2432-.709-3.9922-1.4238-5.2461-2.1475-1.2549-.7227-2.1992-1.6309-2.834-2.7227s-.9512-2.4795-.9512-4.1621c0-1.5938.3828-3.0469,1.1504-4.3604s1.8965-2.3682,3.3877-3.165c1.4893-.7969,3.2686-1.2402,5.334-1.3281.2666-.0293.6787-.0449,1.2402-.0449,1.5342,0,3.0771.1543,4.626.4648,1.5498.3105,2.8564.7012,3.9189,1.1738v5.7109c-1.1514-.502-2.4951-.915-4.0293-1.2402-1.5352-.3242-2.8926-.4863-4.0732-.4863-1.5049,0-2.6562.2656-3.4531.7969s-1.1953,1.2686-1.1953,2.2129c0,.8564.4277,1.624,1.2842,2.3027.8555.6787,2.1836,1.3281,3.9844,1.9482,2.1543.6191,3.9102,1.3213,5.2686,2.1025,1.3574.7822,2.4199,1.8008,3.1875,3.0547.7676,1.2549,1.1514,2.8262,1.1514,4.7148,0,1.8008-.4141,3.3945-1.2402,4.7812-.8262,1.3877-1.9854,2.4727-3.4756,3.2549-1.4902.7812-3.2246,1.2168-5.2012,1.3057-.3252.0293-.8271.0439-1.5059.0439Z"/>
    <path d="m92.9229,85.6367c.959-2.5967,2.4492-4.6934,4.4717-6.2871,2.0215-1.5938,4.5664-2.3906,7.6367-2.3906,1.1211,0,2.2578.082,3.4092.2441s2.1543.375,3.0107.6406v5.3135c-1.8896-.5898-3.6748-.8857-5.3574-.8857-2.2734,0-4,.6201-5.1797,1.8594-1.1807,1.2402-1.9775,2.9082-2.3906,5.0029,1.8291-1.0625,3.8516-1.5938,6.0654-1.5938,2.9805,0,5.209.8936,6.6846,2.6787,1.4756,1.7861,2.2139,4.332,2.2139,7.6367,0,3.4834-.9453,6.2285-2.833,8.2354-1.8896,2.0068-4.5166,3.0098-7.8809,3.0098-4.1621,0-7.084-1.3867-8.7656-4.1611-1.6826-2.7744-2.5244-6.3457-2.5244-10.7139,0-3.1279.4795-5.9912,1.4395-8.5889Zm13.3037,7.8135c-.8262-1.0771-1.9336-1.6152-3.3203-1.6152-1.417,0-2.5312.5381-3.3428,1.6152-.8125,1.0781-1.2178,2.5762-1.2178,4.4941,0,1.9482.4131,3.4385,1.2402,4.4717.8262,1.0332,1.9326,1.5488,3.3203,1.5488,1.3867,0,2.4941-.5156,3.3203-1.5488s1.2393-2.5234,1.2393-4.4717c0-1.918-.4131-3.416-1.2393-4.4941Z"/>
  </g>
</svg>